<svg version="1.1" id="Layer_1" xmlns="http://www.w3.org/2000/svg" xmlns:xlink="http://www.w3.org/1999/xlink" x="0px" y="0px"
	 width="100%" viewBox="0 0 362 352" enable-background="new 0 0 362 352" xml:space="preserve">
<path fill="#FDFDFD" opacity="1.000000" stroke="none" 
	d="
M335.000000,353.000000 
	C330.310760,353.000000 325.621490,353.000000 320.611206,352.697205 
	C355.071930,307.454590 367.422424,256.926483 355.489624,201.452637 
	C335.133270,106.818794 244.645599,46.097328 149.110916,61.930416 
	C78.203255,73.682037 20.601696,127.505470 3.767712,197.693558 
	C3.013977,200.836197 1.930101,203.899658 0.999999,207.000000 
	C1.000000,201.311966 1.000000,195.623917 1.330204,189.726013 
	C2.340902,188.036072 3.169129,186.605194 3.680755,185.068893 
	C32.920753,97.267555 118.381157,43.954369 210.044006,58.186394 
	C276.606415,68.521194 323.950775,105.941566 352.865692,166.674042 
	C355.770813,172.775986 357.980499,179.209045 361.024078,186.755844 
	C361.024078,179.176987 361.113953,173.013962 360.962280,166.856903 
	C360.923279,165.273514 360.336731,163.607162 359.642334,162.150208 
	C323.259399,85.812965 239.063568,40.697800 155.509598,54.392490 
	C84.611671,66.012825 34.604179,105.833923 5.123420,171.378799 
	C3.817088,174.283173 2.377510,177.127640 0.999999,180.000000 
	C1.000000,120.362595 1.000000,60.725189 1.000000,1.043893 
	C121.578217,1.043893 242.156448,1.043893 362.867340,1.043893 
	C362.867340,118.333221 362.867340,235.666595 362.867340,353.000000 
	C358.273895,353.000000 353.609619,353.000000 348.325653,352.656921 
	C348.745514,350.613586 349.890656,348.968048 350.805756,347.203247 
	C354.236511,340.587097 359.140472,334.247589 360.574921,327.209778 
	C362.279144,318.848175 360.975922,309.873566 360.975922,300.855469 
	C360.376282,301.401215 360.051086,301.554199 359.971344,301.790161 
	C354.081177,319.216064 345.991180,335.530029 335.437408,350.615875 
	C335.016205,351.217896 335.133575,352.196747 335.000000,353.000000 
z"/>
<path fill="#0A0A0A" opacity="1.000000" stroke="none" 
	d="
M204.000000,353.000000 
	C177.645767,353.000000 151.291550,353.000000 124.243912,352.711517 
	C69.532982,335.961639 31.252779,289.229370 25.760786,233.041840 
	C16.781704,141.178558 99.176468,65.823997 189.470474,83.320290 
	C251.054947,95.253517 298.056305,147.555054 301.901245,208.429535 
	C306.035400,273.881989 268.191193,331.041687 207.345383,351.293030 
	C206.170990,351.683899 205.112549,352.423248 204.000000,353.000000 
M53.683620,140.193665 
	C-2.594742,220.025253 43.588516,330.776367 140.240509,346.131775 
	C190.150055,354.061035 232.411621,337.648499 263.919281,298.186432 
	C295.330597,258.845093 301.804169,214.031799 283.060944,167.422501 
	C263.669647,119.201576 226.494141,91.245758 174.908844,85.686737 
	C124.970543,80.305183 84.413559,99.332268 53.683620,140.193665 
z"/>
<path fill="#F4F4F4" opacity="1.000000" stroke="none" 
	d="
M204.468658,353.000000 
	C205.112549,352.423248 206.170990,351.683899 207.345383,351.293030 
	C268.191193,331.041687 306.035400,273.881989 301.901245,208.429535 
	C298.056305,147.555054 251.054947,95.253517 189.470474,83.320290 
	C99.176468,65.823997 16.781704,141.178558 25.760786,233.041840 
	C31.252779,289.229370 69.532982,335.961639 123.775253,352.711517 
	C115.645767,353.000000 107.291534,353.000000 98.711456,352.686798 
	C96.094215,350.891174 93.730232,349.362274 91.307442,347.933105 
	C37.302013,316.077026 9.559724,249.965317 24.682426,189.132950 
	C42.977764,115.538383 111.144386,69.031914 186.326050,78.852089 
	C268.230927,89.550446 325.558685,169.377640 309.332397,250.296875 
	C300.544006,294.123993 276.327240,327.007843 238.109085,349.847046 
	C236.882629,350.579956 236.027969,351.934967 235.000000,353.000000 
	C224.979111,353.000000 214.958206,353.000000 204.468658,353.000000 
z"/>
<path fill="#0B0B0B" opacity="1.000000" stroke="none" 
	d="
M235.468414,353.000000 
	C236.027969,351.934967 236.882629,350.579956 238.109085,349.847046 
	C276.327240,327.007843 300.544006,294.123993 309.332397,250.296875 
	C325.558685,169.377640 268.230927,89.550446 186.326050,78.852089 
	C111.144386,69.031914 42.977764,115.538383 24.682426,189.132950 
	C9.559724,249.965317 37.302013,316.077026 91.307442,347.933105 
	C93.730232,349.362274 96.094215,350.891174 98.242798,352.686798 
	C93.310745,353.000000 88.621490,353.000000 83.362457,352.676392 
	C36.148441,318.531647 13.190441,272.835114 16.957024,215.300034 
	C23.282715,118.674164 117.599251,53.116947 210.840302,79.594391 
	C322.471222,111.293976 358.879669,251.727631 276.728912,334.117462 
	C269.970856,340.895172 262.265320,346.728088 255.000000,353.000000 
	C248.645599,353.000000 242.291214,353.000000 235.468414,353.000000 
z"/>
<path fill="#F3F3F3" opacity="1.000000" stroke="none" 
	d="
M255.468414,353.000000 
	C262.265320,346.728088 269.970856,340.895172 276.728912,334.117462 
	C358.879669,251.727631 322.471222,111.293976 210.840302,79.594391 
	C117.599251,53.116947 23.282715,118.674164 16.957024,215.300034 
	C13.190441,272.835114 36.148441,318.531647 82.896347,352.676392 
	C78.310745,353.000000 73.621490,353.000000 68.812737,352.758240 
	C67.720589,351.431366 66.826790,350.261414 65.763908,349.273376 
	C23.832792,310.294495 5.632515,262.315918 13.985616,205.666504 
	C27.990660,110.686531 122.306564,50.194767 214.566406,76.036957 
	C294.060516,98.303444 343.857697,178.524796 328.293610,259.153595 
	C321.396057,294.885803 304.274475,324.776276 277.352814,349.166718 
	C276.286285,350.132935 275.771729,351.708374 275.000000,353.000000 
	C268.645599,353.000000 262.291199,353.000000 255.468414,353.000000 
z"/>
<path fill="#F2F2F2" opacity="1.000000" stroke="none" 
	d="
M307.000000,353.000000 
	C301.645081,353.000000 296.290131,353.000000 290.595886,352.690918 
	C328.736572,313.261169 345.559357,266.505798 339.141754,211.865967 
	C327.685242,114.325035 230.239777,47.370773 134.699844,71.169067 
	C25.606625,98.343369 -26.247147,221.848953 31.342196,318.333649 
	C38.761761,330.764343 49.043896,341.486420 58.000000,353.000000 
	C54.638714,353.000000 51.277424,353.000000 47.723160,352.708923 
	C46.895439,351.647827 46.264660,350.874512 45.625381,350.108307 
	C8.304574,305.376831 -5.225965,254.266083 7.828922,197.544830 
	C28.960762,105.730583 116.623528,49.145287 209.337845,66.097092 
	C288.220795,80.519974 348.175262,150.797607 350.053741,230.885818 
	C351.101868,275.572998 337.169495,314.928955 308.575836,349.200867 
	C307.737335,350.205902 307.511475,351.722107 307.000000,353.000000 
z"/>
<path fill="#0B0B0B" opacity="1.000000" stroke="none" 
	d="
M58.454109,353.000000 
	C49.043896,341.486420 38.761761,330.764343 31.342196,318.333649 
	C-26.247147,221.848953 25.606625,98.343369 134.699844,71.169067 
	C230.239777,47.370773 327.685242,114.325035 339.141754,211.865967 
	C345.559357,266.505798 328.736572,313.261169 290.128265,352.690918 
	C285.310760,353.000000 280.621490,353.000000 275.466125,353.000000 
	C275.771729,351.708374 276.286285,350.132935 277.352814,349.166718 
	C304.274475,324.776276 321.396057,294.885803 328.293610,259.153595 
	C343.857697,178.524796 294.060516,98.303444 214.566406,76.036957 
	C122.306564,50.194767 27.990660,110.686531 13.985616,205.666504 
	C5.632515,262.315918 23.832792,310.294495 65.763908,349.273376 
	C66.826790,350.261414 67.720589,351.431366 68.346619,352.758240 
	C64.969406,353.000000 61.938816,353.000000 58.454109,353.000000 
z"/>
<path fill="#0C0C0C" opacity="1.000000" stroke="none" 
	d="
M307.463165,353.000000 
	C307.511475,351.722107 307.737335,350.205902 308.575836,349.200867 
	C337.169495,314.928955 351.101868,275.572998 350.053741,230.885818 
	C348.175262,150.797607 288.220795,80.519974 209.337845,66.097092 
	C116.623528,49.145287 28.960762,105.730583 7.828922,197.544830 
	C-5.225965,254.266083 8.304574,305.376831 45.625381,350.108307 
	C46.264660,350.874512 46.895439,351.647827 47.265091,352.708923 
	C44.299988,353.000000 41.599972,353.000000 38.497654,352.650696 
	C21.334997,331.014038 9.696307,307.255249 3.533826,280.836975 
	C2.838578,277.856476 1.851664,274.944000 1.000000,272.000000 
	C1.000000,250.645767 1.000000,229.291550 0.999999,207.468658 
	C1.930101,203.899658 3.013977,200.836197 3.767712,197.693558 
	C20.601696,127.505470 78.203255,73.682037 149.110916,61.930416 
	C244.645599,46.097328 335.133270,106.818794 355.489624,201.452637 
	C367.422424,256.926483 355.071930,307.454590 320.145081,352.697205 
	C315.975464,353.000000 311.950897,353.000000 307.463165,353.000000 
z"/>
<path fill="#101010" opacity="1.000000" stroke="none" 
	d="
M0.999999,180.449982 
	C2.377510,177.127640 3.817088,174.283173 5.123420,171.378799 
	C34.604179,105.833923 84.611671,66.012825 155.509598,54.392490 
	C239.063568,40.697800 323.259399,85.812965 359.642334,162.150208 
	C360.336731,163.607162 360.923279,165.273514 360.962280,166.856903 
	C361.113953,173.013962 361.024078,179.176987 361.024078,186.755844 
	C357.980499,179.209045 355.770813,172.775986 352.865692,166.674042 
	C323.950775,105.941566 276.606415,68.521194 210.044006,58.186394 
	C118.381157,43.954369 32.920753,97.267555 3.680755,185.068893 
	C3.169129,186.605194 2.340902,188.036072 1.330204,189.258072 
	C1.000000,186.299988 1.000000,183.599976 0.999999,180.449982 
z"/>
<path fill="#070707" opacity="1.000000" stroke="none" 
	d="
M335.463196,353.000000 
	C335.133575,352.196747 335.016205,351.217896 335.437408,350.615875 
	C345.991180,335.530029 354.081177,319.216064 359.971344,301.790161 
	C360.051086,301.554199 360.376282,301.401215 360.975922,300.855469 
	C360.975922,309.873566 362.279144,318.848175 360.574921,327.209778 
	C359.140472,334.247589 354.236511,340.587097 350.805756,347.203247 
	C349.890656,348.968048 348.745514,350.613586 347.852997,352.656921 
	C343.975464,353.000000 339.950897,353.000000 335.463196,353.000000 
z"/>
<path fill="#F4F4F4" opacity="1.000000" stroke="none" 
	d="
M1.000000,272.468628 
	C1.851664,274.944000 2.838578,277.856476 3.533826,280.836975 
	C9.696307,307.255249 21.334997,331.014038 38.047676,352.650696 
	C35.299988,353.000000 32.599972,353.000000 29.689888,352.691803 
	C17.911510,335.859863 8.822519,318.110046 2.863482,298.794281 
	C2.641015,298.073181 1.638830,297.592651 1.000001,297.000000 
	C1.000000,288.979095 1.000000,280.958191 1.000000,272.468628 
z"/>
<path fill="#FAFAFA" opacity="1.000000" stroke="none" 
	d="
M21.000000,353.000000 
	C14.381522,353.000000 7.763045,353.000000 1.000000,353.000000 
	C1.000000,339.646057 1.000000,326.291687 1.275398,312.699585 
	C7.027477,323.970093 12.498015,335.481293 17.986610,346.983856 
	C18.952330,349.007721 19.993612,350.995544 21.000000,353.000000 
z"/>
<path fill="#0C0C0C" opacity="1.000000" stroke="none" 
	d="
M21.444162,353.000000 
	C19.993612,350.995544 18.952330,349.007721 17.986610,346.983856 
	C12.498015,335.481293 7.027477,323.970093 1.275398,312.230927 
	C1.000000,307.310760 1.000000,302.621490 1.000001,297.466125 
	C1.638830,297.592651 2.641015,298.073181 2.863482,298.794281 
	C8.822519,318.110046 17.911510,335.859863 29.239908,352.691803 
	C26.629442,353.000000 24.258884,353.000000 21.444162,353.000000 
z"/>
<path fill="#F4F4F4" opacity="1.000000" stroke="none" 
	d="
M53.884514,139.897507 
	C84.413559,99.332268 124.970543,80.305183 174.908844,85.686737 
	C226.494141,91.245758 263.669647,119.201576 283.060944,167.422501 
	C301.804169,214.031799 295.330597,258.845093 263.919281,298.186432 
	C232.411621,337.648499 190.150055,354.061035 140.240509,346.131775 
	C43.588516,330.776367 -2.594742,220.025253 53.884514,139.897507 
M239.916000,118.567490 
	C217.752472,99.534103 191.998550,89.224182 162.881088,88.356400 
	C85.544762,86.051575 25.846128,151.521194 34.811768,228.380890 
	C44.400627,310.583282 132.470352,360.825073 208.278625,327.339783 
	C292.432220,290.168243 309.335297,180.754471 239.916000,118.567490 
z"/>
<path fill="#0A0A0A" opacity="1.000000" stroke="none" 
	d="
M240.188293,118.796539 
	C309.335297,180.754471 292.432220,290.168243 208.278625,327.339783 
	C132.470352,360.825073 44.400627,310.583282 34.811768,228.380890 
	C25.846128,151.521194 85.544762,86.051575 162.881088,88.356400 
	C191.998550,89.224182 217.752472,99.534103 240.188293,118.796539 
M184.375778,323.980194 
	C244.908463,307.673462 281.586365,252.049301 272.168121,190.838089 
	C263.022125,131.396271 209.172318,88.458183 148.374908,92.129364 
	C88.654533,95.735512 40.488529,144.791626 38.195457,204.344925 
	C35.167206,282.991638 107.103806,342.272858 184.375778,323.980194 
z"/>
<path fill="#F5F5F5" opacity="1.000000" stroke="none" 
	d="
M183.965576,324.056335 
	C107.103806,342.272858 35.167206,282.991638 38.195457,204.344925 
	C40.488529,144.791626 88.654533,95.735512 148.374908,92.129364 
	C209.172318,88.458183 263.022125,131.396271 272.168121,190.838089 
	C281.586365,252.049301 244.908463,307.673462 183.965576,324.056335 
M174.044800,97.334106 
	C159.116318,94.612450 144.251068,94.713615 129.397537,98.030914 
	C71.281349,111.010201 33.498024,167.743927 44.250111,225.972672 
	C55.187599,285.205536 110.921402,324.912750 170.295471,315.772919 
	C223.025757,307.655853 262.923431,262.474579 264.076050,209.573135 
	C265.269348,154.806122 228.028107,108.035736 174.044800,97.334106 
z"/>
<path fill="#0A0A0A" opacity="1.000000" stroke="none" 
	d="
M174.457870,97.438339 
	C228.028107,108.035736 265.269348,154.806122 264.076050,209.573135 
	C262.923431,262.474579 223.025757,307.655853 170.295471,315.772919 
	C110.921402,324.912750 55.187599,285.205536 44.250111,225.972672 
	C33.498024,167.743927 71.281349,111.010201 129.397537,98.030914 
	C144.251068,94.713615 159.116318,94.612450 174.457870,97.438339 
M215.085388,121.392769 
	C200.699493,109.941803 184.344269,102.789757 166.228821,100.143402 
	C97.627663,90.121941 39.374176,147.396362 47.830200,216.353378 
	C56.598572,287.857513 136.504593,328.958405 199.710159,294.475159 
	C265.566528,258.545654 273.725677,170.091629 215.085388,121.392769 
z"/>
<path fill="#F4F4F4" opacity="1.000000" stroke="none" 
	d="
M215.359436,121.620895 
	C273.725677,170.091629 265.566528,258.545654 199.710159,294.475159 
	C136.504593,328.958405 56.598572,287.857513 47.830200,216.353378 
	C39.374176,147.396362 97.627663,90.121941 166.228821,100.143402 
	C184.344269,102.789757 200.699493,109.941803 215.359436,121.620895 
M51.349560,204.121002 
	C51.473270,205.447693 51.595860,206.774506 51.720871,208.101074 
	C57.058060,264.737305 108.045853,304.174255 164.161667,295.069611 
	C210.235870,287.594177 244.931427,246.988037 245.043945,200.408554 
	C245.160217,152.264679 210.999771,111.644409 163.914368,103.937233 
	C103.354927,94.024559 50.136776,140.930420 51.349560,204.121002 
z"/>
<path fill="#0B0B0B" opacity="1.000000" stroke="none" 
	d="
M51.322273,203.659821 
	C50.136776,140.930420 103.354927,94.024559 163.914368,103.937233 
	C210.999771,111.644409 245.160217,152.264679 245.043945,200.408554 
	C244.931427,246.988037 210.235870,287.594177 164.161667,295.069611 
	C108.045853,304.174255 57.058060,264.737305 51.720871,208.101074 
	C51.595860,206.774506 51.473270,205.447693 51.322273,203.659821 
M117.809784,281.812103 
	C131.236481,285.837128 144.853348,287.133881 158.798447,285.125580 
	C209.264587,277.857758 243.443726,229.571716 233.862808,178.957733 
	C224.511261,129.555435 174.884857,97.164314 125.841072,108.451973 
	C86.992302,117.393196 58.089214,150.938156 55.885567,189.642395 
	C53.489719,231.722412 77.474419,267.739868 117.809784,281.812103 
z"/>
<path fill="#F5F5F5" opacity="1.000000" stroke="none" 
	d="
M117.439865,281.667053 
	C77.474419,267.739868 53.489719,231.722412 55.885567,189.642395 
	C58.089214,150.938156 86.992302,117.393196 125.841072,108.451973 
	C174.884857,97.164314 224.511261,129.555435 233.862808,178.957733 
	C243.443726,229.571716 209.264587,277.857758 158.798447,285.125580 
	C144.853348,287.133881 131.236481,285.837128 117.439865,281.667053 
M165.437164,112.949677 
	C107.476601,96.971733 53.094780,144.547684 60.872696,204.427933 
	C66.351837,246.610504 104.337517,277.880859 147.528915,275.764557 
	C189.683884,273.699005 224.570312,238.360733 225.913986,196.364166 
	C227.149292,157.754700 204.175964,125.714012 165.437164,112.949677 
z"/>
<path fill="#0B0B0B" opacity="1.000000" stroke="none" 
	d="
M165.832520,113.035080 
	C204.175964,125.714012 227.149292,157.754700 225.913986,196.364166 
	C224.570312,238.360733 189.683884,273.699005 147.528915,275.764557 
	C104.337517,277.880859 66.351837,246.610504 60.872696,204.427933 
	C53.094780,144.547684 107.476601,96.971733 165.832520,113.035080 
M211.295120,162.310898 
	C197.505920,127.251358 162.429260,108.000450 125.197136,115.058266 
	C86.597771,122.375259 60.653797,158.650513 65.018463,199.201019 
	C69.034378,236.511398 103.282928,266.370941 141.026627,265.468689 
	C194.392242,264.192963 228.935654,214.074615 211.295120,162.310898 
z"/>
<path fill="#F5F5F5" opacity="1.000000" stroke="none" 
	d="
M211.469894,162.660645 
	C228.935654,214.074615 194.392242,264.192963 141.026627,265.468689 
	C103.282928,266.370941 69.034378,236.511398 65.018463,199.201019 
	C60.653797,158.650513 86.597771,122.375259 125.197136,115.058266 
	C162.429260,108.000450 197.505920,127.251358 211.469894,162.660645 
M202.275497,210.679794 
	C206.283432,200.060165 207.635971,189.169586 206.278183,177.843185 
	C201.554474,138.438766 164.636642,111.199875 125.205551,118.169556 
	C86.599777,124.993355 61.312004,164.074036 70.711708,202.386414 
	C77.807121,231.306702 102.473373,252.606247 131.524246,254.898621 
	C162.617371,257.352142 189.429031,240.816101 202.275497,210.679794 
z"/>
<path fill="#0A0A0A" opacity="1.000000" stroke="none" 
	d="
M202.151794,211.047638 
	C189.429031,240.816101 162.617371,257.352142 131.524246,254.898621 
	C102.473373,252.606247 77.807121,231.306702 70.711708,202.386414 
	C61.312004,164.074036 86.599777,124.993355 125.205551,118.169556 
	C164.636642,111.199875 201.554474,138.438766 206.278183,177.843185 
	C207.635971,189.169586 206.283432,200.060165 202.151794,211.047638 
M135.459839,244.889282 
	C138.111450,244.663925 140.773315,244.522629 143.413116,244.200455 
	C177.160324,240.081833 201.707657,207.839844 196.703506,174.236847 
	C191.470673,139.098251 158.672333,115.222107 124.450508,121.638985 
	C92.919182,127.551384 71.037773,155.399506 73.212669,186.848572 
	C75.460403,219.350891 101.251633,243.759827 135.459839,244.889282 
z"/>
<path fill="#F4F4F4" opacity="1.000000" stroke="none" 
	d="
M134.999832,244.889069 
	C101.251633,243.759827 75.460403,219.350891 73.212669,186.848572 
	C71.037773,155.399506 92.919182,127.551384 124.450508,121.638985 
	C158.672333,115.222107 191.470673,139.098251 196.703506,174.236847 
	C201.707657,207.839844 177.160324,240.081833 143.413116,244.200455 
	C140.773315,244.522629 138.111450,244.663925 134.999832,244.889069 
M176.044785,145.499405 
	C162.789856,129.584686 145.966583,122.375565 125.259438,124.818382 
	C101.685852,127.599373 81.711021,147.051849 78.121346,170.617386 
	C74.410263,194.979996 87.099922,219.097229 108.924797,229.160706 
	C132.099060,239.846375 159.157745,233.860031 175.052780,214.530853 
	C191.415070,194.633469 191.975998,167.753754 176.044785,145.499405 
z"/>
<path fill="#0A0A0A" opacity="1.000000" stroke="none" 
	d="
M176.263168,145.781403 
	C191.975998,167.753754 191.415070,194.633469 175.052780,214.530853 
	C159.157745,233.860031 132.099060,239.846375 108.924797,229.160706 
	C87.099922,219.097229 74.410263,194.979996 78.121346,170.617386 
	C81.711021,147.051849 101.685852,127.599373 125.259438,124.818382 
	C145.966583,122.375565 162.789856,129.584686 176.263168,145.781403 
M110.605339,132.011841 
	C90.354309,141.509491 79.133781,161.571259 82.272446,182.669693 
	C86.463432,210.841980 113.368607,229.391739 140.717010,222.964279 
	C168.349243,216.470108 184.410339,188.234863 175.814590,161.263046 
	C167.263336,134.430832 137.834793,120.964134 110.605339,132.011841 
z"/>
<path fill="#F5F5F5" opacity="1.000000" stroke="none" 
	d="
M110.967697,131.883179 
	C137.834793,120.964134 167.263336,134.430832 175.814590,161.263046 
	C184.410339,188.234863 168.349243,216.470108 140.717010,222.964279 
	C113.368607,229.391739 86.463432,210.841980 82.272446,182.669693 
	C79.133781,161.571259 90.354309,141.509491 110.967697,131.883179 
M100.265739,141.736694 
	C86.768127,154.555725 82.702919,171.105988 88.997299,187.612717 
	C94.748627,202.695343 109.471733,213.372620 125.235771,213.893036 
	C144.305435,214.522583 160.618439,203.345688 166.576324,185.568436 
	C172.293961,168.508026 165.834732,149.387772 150.789185,138.836243 
	C135.663803,128.228729 115.887245,129.183502 100.265739,141.736694 
z"/>
<path fill="#0A0A0A" opacity="1.000000" stroke="none" 
	d="
M100.525299,141.493530 
	C115.887245,129.183502 135.663803,128.228729 150.789185,138.836243 
	C165.834732,149.387772 172.293961,168.508026 166.576324,185.568436 
	C160.618439,203.345688 144.305435,214.522583 125.235771,213.893036 
	C109.471733,213.372620 94.748627,202.695343 88.997299,187.612717 
	C82.702919,171.105988 86.768127,154.555725 100.525299,141.493530 
M127.064705,203.524200 
	C145.437012,201.123978 158.174026,188.332520 158.992203,171.460251 
	C159.941299,151.887512 145.188751,135.768890 125.746544,135.136093 
	C106.921036,134.523346 90.854340,149.847626 90.673447,168.588486 
	C90.479500,188.681381 105.796570,203.758530 127.064705,203.524200 
z"/>
<path fill="#F4F4F4" opacity="1.000000" stroke="none" 
	d="
M126.637253,203.546204 
	C105.796570,203.758530 90.479500,188.681381 90.673447,168.588486 
	C90.854340,149.847626 106.921036,134.523346 125.746544,135.136093 
	C145.188751,135.768890 159.941299,151.887512 158.992203,171.460251 
	C158.174026,188.332520 145.437012,201.123978 126.637253,203.546204 
M130.161758,139.993790 
	C118.120583,136.750793 106.550690,140.761353 99.821533,150.510818 
	C93.193031,160.114471 93.392448,172.833130 100.318848,182.229736 
	C107.072884,191.392517 119.071556,195.368118 130.075912,192.089386 
	C141.051376,188.819229 148.748199,179.029892 149.420837,167.485153 
	C150.124664,155.405121 143.419464,145.497360 130.161758,139.993790 
z"/>
<path fill="#090909" opacity="1.000000" stroke="none" 
	d="
M130.555298,140.092163 
	C143.419464,145.497360 150.124664,155.405121 149.420837,167.485153 
	C148.748199,179.029892 141.051376,188.819229 130.075912,192.089386 
	C119.071556,195.368118 107.072884,191.392517 100.318848,182.229736 
	C93.392448,172.833130 93.193031,160.114471 99.821533,150.510818 
	C106.550690,140.761353 118.120583,136.750793 130.555298,140.092163 
M139.923584,164.196014 
	C139.865097,162.702698 139.954651,161.186172 139.724686,159.719742 
	C137.871475,147.901794 126.956596,140.439896 115.187637,142.890686 
	C103.999260,145.220566 96.997261,156.919144 100.088142,168.118134 
	C102.530006,176.965591 110.945374,183.173492 120.229988,182.976486 
	C130.046402,182.768204 137.308014,176.131393 139.923584,164.196014 
z"/>
<path fill="#F4F4F4" opacity="1.000000" stroke="none" 
	d="
M139.889481,164.617859 
	C137.308014,176.131393 130.046402,182.768204 120.229988,182.976486 
	C110.945374,183.173492 102.530006,176.965591 100.088142,168.118134 
	C96.997261,156.919144 103.999260,145.220566 115.187637,142.890686 
	C126.956596,140.439896 137.871475,147.901794 139.724686,159.719742 
	C139.954651,161.186172 139.865097,162.702698 139.889481,164.617859 
M116.678040,172.607239 
	C128.110550,171.489243 134.066330,160.880463 128.199448,152.084595 
	C124.746460,146.907730 118.733421,144.774567 112.954147,146.676208 
	C107.150330,148.585922 103.502487,153.927353 103.830582,160.035583 
	C104.182190,166.581726 108.396706,170.933105 116.678040,172.607239 
z"/>
<path fill="#050505" opacity="1.000000" stroke="none" 
	d="
M116.294296,172.557556 
	C108.396706,170.933105 104.182190,166.581726 103.830582,160.035583 
	C103.502487,153.927353 107.150330,148.585922 112.954147,146.676208 
	C118.733421,144.774567 124.746460,146.907730 128.199448,152.084595 
	C134.066330,160.880463 128.110550,171.489243 116.294296,172.557556 
z"/>
</svg>